<svg width="228" height="69" fill="none" xmlns="http://www.w3.org/2000/svg"><g clip-path="url(#clip0_113_2567)"><path d="M226.398 60.813c0 3.595-2.884 6.526-6.484 6.526H7.962c-3.572 0-6.484-2.903-6.484-6.526V8.88c0-3.595 2.912-6.526 6.484-6.526h211.952c3.572 0 6.484 2.93 6.484 6.526v51.933z" fill="#fff"/><path d="M219.948 68.832H7.995C3.599 68.832 0 65.237 0 60.812V8.88C0 4.455 3.571.832 7.995.832h211.953c4.394 0 7.994 3.595 7.994 8.047v51.934c-.028 4.424-3.6 8.019-7.994 8.019z" fill="#A6A6A6"/><path d="M226.398 60.813c0 3.595-2.884 6.526-6.484 6.526H7.962c-3.572 0-6.484-2.903-6.484-6.526V8.88c0-3.595 2.912-6.526 6.484-6.526h211.952c3.572 0 6.484 2.93 6.484 6.526v51.933z" fill="#000"/><path d="M50.885 34.487c-.055-5.476 4.45-8.158 4.67-8.269-2.554-3.733-6.51-4.258-7.912-4.286-3.324-.36-6.538 1.991-8.241 1.991-1.731 0-4.341-1.963-7.143-1.908-3.627.055-7.006 2.157-8.846 5.448-3.82 6.664-.962 16.481 2.692 21.873 1.84 2.655 3.983 5.587 6.786 5.476 2.747-.11 3.763-1.77 7.087-1.77 3.27 0 4.259 1.77 7.116 1.687 2.94-.055 4.808-2.655 6.566-5.31 2.115-3.014 2.967-6 2.995-6.166-.055-.028-5.715-2.212-5.77-8.766zm-5.412-16.123c1.483-1.853 2.5-4.397 2.197-6.941-2.142.083-4.807 1.493-6.346 3.318-1.373 1.604-2.582 4.231-2.253 6.692 2.418.166 4.863-1.244 6.402-3.07zm45.183 36.034H86.81l-2.088-6.637h-7.335l-2.006 6.637h-3.736l7.225-22.62h4.478l7.308 22.62zm-6.594-9.43l-1.895-5.918c-.192-.608-.577-2.019-1.127-4.258h-.055c-.22.968-.576 2.378-1.07 4.258l-1.87 5.918h6.017zm25.169 1.078c0 2.765-.742 4.977-2.253 6.581-1.346 1.438-3.022 2.157-5 2.157-2.143 0-3.681-.774-4.615-2.323v8.573h-3.6v-17.56c0-1.742-.054-3.54-.137-5.365h3.16l.192 2.6h.055c1.209-1.936 3.022-2.932 5.467-2.932 1.923 0 3.517.747 4.78 2.296 1.292 1.493 1.951 3.484 1.951 5.973zm-3.681.138c0-1.576-.358-2.904-1.072-3.927-.769-1.078-1.813-1.604-3.132-1.604-.879 0-1.703.304-2.417.885a4.277 4.277 0 00-1.43 2.323c-.109.443-.164.802-.164 1.106v2.71c0 1.19.357 2.185 1.072 3.014.714.83 1.675 1.217 2.829 1.217 1.346 0 2.418-.525 3.16-1.576.769-1.05 1.154-2.434 1.154-4.148zm22.311-.138c0 2.765-.742 4.977-2.252 6.581-1.346 1.438-3.022 2.157-5 2.157-2.143 0-3.681-.774-4.615-2.323v8.573h-3.599v-17.56c0-1.742-.055-3.54-.138-5.365h3.16l.192 2.6h.055c1.209-1.936 3.022-2.932 5.467-2.932 1.923 0 3.517.747 4.78 2.296 1.319 1.493 1.95 3.484 1.95 5.973zm-3.654.138c0-1.576-.357-2.904-1.071-3.927-.768-1.078-1.813-1.604-3.131-1.604-.88 0-1.704.304-2.418.885-.714.609-1.181 1.383-1.429 2.323-.109.443-.164.802-.164 1.106v2.71c0 1.19.357 2.185 1.071 3.014.714.802 1.676 1.217 2.83 1.217 1.346 0 2.417-.525 3.159-1.576.77-1.05 1.153-2.434 1.153-4.148zm24.503 1.879c0 1.936-.658 3.485-2.005 4.702-1.456 1.327-3.516 1.99-6.127 1.99-2.417 0-4.368-.47-5.824-1.41l.825-3.014c1.566.94 3.324 1.41 5.192 1.41 1.347 0 2.418-.304 3.16-.912.742-.609 1.126-1.438 1.126-2.461 0-.913-.302-1.687-.935-2.323-.632-.636-1.647-1.217-3.103-1.742-3.93-1.466-5.907-3.65-5.907-6.471 0-1.853.687-3.374 2.087-4.563 1.402-1.19 3.243-1.77 5.523-1.77 2.033 0 3.764.36 5.11 1.078l-.907 2.96c-1.263-.692-2.719-1.051-4.313-1.051-1.264 0-2.281.304-2.967.94a2.675 2.675 0 00-.906 2.046c0 .885.357 1.632 1.043 2.212.604.526 1.676 1.107 3.269 1.742 1.923.775 3.351 1.687 4.259 2.738.961 1.023 1.4 2.323 1.4 3.9zm11.938-7.245h-3.983v7.909c0 2.019.686 3.014 2.088 3.014.631 0 1.181-.055 1.594-.166l.11 2.766c-.716.276-1.65.414-2.803.414-1.429 0-2.527-.442-3.324-1.3-.797-.884-1.209-2.35-1.209-4.396v-8.24h-2.362v-2.711h2.362v-2.987l3.544-1.078v4.065h3.983v2.71zm17.891 5.311c0 2.516-.715 4.563-2.143 6.166-1.484 1.66-3.461 2.49-5.934 2.49-2.39 0-4.286-.803-5.687-2.379-1.401-1.576-2.116-3.595-2.116-6 0-2.517.742-4.591 2.198-6.223 1.456-1.604 3.435-2.406 5.88-2.406 2.39 0 4.285.802 5.741 2.379 1.346 1.52 2.061 3.511 2.061 5.973zm-3.736.083c0-1.494-.33-2.766-.962-3.844-.742-1.3-1.841-1.936-3.241-1.936-1.456 0-2.555.636-3.297 1.936-.632 1.078-.962 2.378-.962 3.927 0 1.493.33 2.793.962 3.843.769 1.3 1.868 1.936 3.269 1.936 1.374 0 2.445-.663 3.241-1.963.632-1.134.99-2.406.99-3.9zm15.445-4.922a7.421 7.421 0 00-1.127-.111c-1.263 0-2.252.47-2.938 1.438-.605.857-.908 1.936-.908 3.236v8.572h-3.598V43.253c0-1.88-.028-3.595-.11-5.143h3.132l.137 3.124h.11c.385-1.078.989-1.935 1.813-2.599.796-.58 1.676-.885 2.61-.885.33 0 .632.028.907.055l-.028 3.485zm16.099 4.176c0 .636-.056 1.19-.138 1.632h-10.797c.028 1.604.577 2.848 1.566 3.705.907.747 2.088 1.134 3.544 1.134 1.594 0 3.05-.249 4.369-.774l.576 2.516c-1.538.664-3.351.996-5.439.996-2.5 0-4.478-.747-5.934-2.24-1.428-1.493-2.143-3.484-2.143-6 0-2.462.659-4.508 2.005-6.14 1.401-1.742 3.297-2.627 5.659-2.627 2.336 0 4.095.885 5.303 2.627.962 1.438 1.429 3.152 1.429 5.171zm-3.435-.94c.028-1.079-.219-1.991-.686-2.793-.632-1.023-1.594-1.521-2.858-1.521-1.181 0-2.142.498-2.857 1.466-.604.774-.961 1.714-1.071 2.82l7.472.028zM82.334 23.673H80.44l-1.044-3.263h-3.6l-.988 3.263h-1.84l3.543-11.116h2.198l3.626 11.116zm-3.214-4.618l-.934-2.903c-.11-.305-.275-.996-.55-2.102h-.027c-.11.47-.275 1.161-.522 2.102l-.906 2.903h2.94zm12.12-3.402l-3.023 8.02h-1.73l-2.913-8.02h1.896l1.374 4.231c.22.72.412 1.383.577 2.02h.055c.137-.582.33-1.245.576-2.02l1.347-4.23h1.84zm6.425 8.019l-.137-.912h-.055c-.55.746-1.319 1.106-2.335 1.106-1.429 0-2.446-.996-2.446-2.35 0-1.992 1.704-3.015 4.643-3.015v-.138c0-1.051-.55-1.577-1.648-1.577-.797 0-1.483.194-2.088.609l-.357-1.162c.742-.47 1.648-.691 2.747-.691 2.088 0 3.132 1.106 3.132 3.318v2.96c0 .801.028 1.437.11 1.907l-1.566-.055zm-.247-3.982c-1.978 0-2.94.47-2.94 1.604 0 .83.522 1.244 1.209 1.244.907 0 1.73-.691 1.73-1.631V19.69zm5.658-5.362c-.577 0-1.044-.47-1.044-1.079 0-.608.467-1.05 1.071-1.05.605 0 1.099.442 1.072 1.05.027.664-.44 1.079-1.099 1.079zm.906 9.346h-1.758v-8.02h1.758v8.02zm4.916-.002h-1.758V11.975h1.758v11.697zm7.528 0l-.138-.912h-.054c-.55.746-1.319 1.106-2.336 1.106-1.428 0-2.445-.996-2.445-2.35 0-1.992 1.704-3.015 4.643-3.015v-.138c0-1.051-.549-1.577-1.648-1.577-.797 0-1.484.194-2.088.609l-.357-1.162c.741-.47 1.648-.691 2.747-.691 2.088 0 3.132 1.106 3.132 3.318v2.96c0 .801.027 1.437.11 1.907h-1.566v-.055zm-.247-3.982c-1.978 0-2.94.47-2.94 1.604 0 .83.522 1.244 1.209 1.244.906 0 1.731-.691 1.731-1.631V19.69zm8.897 4.177c-1.126 0-1.978-.47-2.499-1.41h-.028l-.11 1.244h-1.511c.055-.636.055-1.382.055-2.157v-9.54h1.786v4.84h.027c.521-.886 1.373-1.328 2.528-1.328 1.922 0 3.269 1.66 3.269 4.065 0 2.461-1.484 4.286-3.517 4.286zm-.357-6.968c-1.017 0-1.95.884-1.95 2.129v1.41c0 1.106.823 2.019 1.922 2.019 1.319 0 2.116-1.079 2.116-2.82 0-1.632-.824-2.738-2.088-2.738zm8.27 6.773h-1.759V11.975h1.759v11.697zm9.656-3.565h-5.303c.027 1.52 1.044 2.378 2.5 2.378.797 0 1.511-.139 2.143-.387l.275 1.244c-.742.332-1.648.498-2.665.498-2.501 0-3.956-1.577-3.956-4.038 0-2.461 1.511-4.314 3.763-4.314 2.034 0 3.325 1.521 3.325 3.817-.028.304-.028.58-.082.802zm-1.622-1.273c0-1.244-.632-2.101-1.757-2.101-1.017 0-1.813.885-1.924 2.101h3.681zm12.358 5.035c-2.336 0-3.847-1.742-3.847-4.12 0-2.49 1.539-4.231 3.984-4.231 2.28 0 3.846 1.659 3.846 4.12-.028 2.489-1.621 4.23-3.983 4.23zm.054-7.08c-1.291 0-2.087 1.217-2.087 2.877 0 1.659.824 2.848 2.087 2.848 1.264 0 2.088-1.3 2.088-2.876-.028-1.604-.852-2.848-2.088-2.848zm13.405 6.885h-1.758v-4.618c0-1.41-.55-2.13-1.593-2.13-1.045 0-1.787.913-1.787 1.964v4.784h-1.758V17.95c0-.72-.027-1.466-.055-2.296h1.566l.083 1.245h.054c.468-.858 1.456-1.41 2.529-1.41 1.675 0 2.774 1.3 2.774 3.373l-.055 4.812zm11.593-6.667h-1.95v3.9c0 .995.33 1.493 1.044 1.493.302 0 .577-.028.797-.083l.055 1.355c-.357.138-.797.193-1.374.193-1.4 0-2.226-.774-2.226-2.793v-4.037h-1.153v-1.383h1.153v-1.465l1.732-.526v1.991h1.95v1.355h-.028zm9.373 6.668h-1.786v-4.563c0-1.438-.549-2.157-1.593-2.157-.906 0-1.758.636-1.758 1.908v4.812h-1.785V11.977h1.785v4.812h.028c.549-.885 1.373-1.3 2.389-1.3 1.676 0 2.72 1.328 2.72 3.43v4.756zm9.07-3.568h-5.331c.028 1.52 1.045 2.378 2.501 2.378.796 0 1.51-.139 2.142-.387l.275 1.244c-.742.332-1.648.498-2.665.498-2.499 0-3.955-1.577-3.955-4.038 0-2.461 1.51-4.314 3.762-4.314 2.034 0 3.325 1.521 3.325 3.817 0 .304-.028.58-.054.802zm-1.622-1.273c0-1.244-.632-2.101-1.758-2.101-1.016 0-1.814.885-1.923 2.101h3.681z" fill="#fff"/></g><defs><clipPath id="clip0_113_2567"><path fill="#fff" transform="translate(0 .832)" d="M0 0h228v68H0z"/></clipPath></defs></svg>