<svg width="233" height="69" fill="none" xmlns="http://www.w3.org/2000/svg"><g clip-path="url(#clip0_113_2596)"><path d="M223.29 68.399H9.543C4.836 68.399 1 64.586 1 59.907V8.925C1 4.246 4.835.434 9.542.434H223.29c4.708 0 8.542 3.812 8.542 8.49v50.983c0 4.68-3.869 8.492-8.542 8.492z" fill="#000"/><path d="M223.291 1.756c3.974 0 7.182 3.189 7.182 7.14v50.982c0 3.951-3.208 7.14-7.182 7.14H9.543c-3.975 0-7.182-3.189-7.182-7.14V8.896c0-3.951 3.207-7.14 7.182-7.14H223.29zm0-1.352H9.543C4.836.404 1 4.217 1 8.896v50.982c0 4.68 3.835 8.492 8.542 8.492H223.29c4.705 0 8.541-3.813 8.541-8.492V8.896c0-4.68-3.869-8.492-8.541-8.492z" fill="#A6A6A6"/><path d="M82.065 17.834c0 1.42-.418 2.565-1.255 3.396-.976 1.005-2.231 1.525-3.765 1.525-1.465 0-2.755-.52-3.766-1.525-1.046-1.04-1.569-2.287-1.569-3.812s.523-2.773 1.57-3.778c1.045-1.005 2.3-1.525 3.765-1.525.732 0 1.429.139 2.091.416.663.277 1.22.659 1.604 1.144l-.906.901c-.698-.797-1.604-1.213-2.824-1.213-1.081 0-2.022.381-2.79 1.144-.801.762-1.185 1.733-1.185 2.946s.384 2.183 1.186 2.946c.801.762 1.743 1.143 2.789 1.143 1.15 0 2.091-.38 2.858-1.143.489-.486.802-1.179.872-2.08h-3.73v-1.213h4.95c.105.208.105.45.105.728zm7.882-4.266h-4.671v3.223h4.218v1.213h-4.218v3.223h4.671v1.248h-5.996v-10.19h5.996v1.283zm5.567 8.942H94.19v-8.942h-2.858V12.32h7.042v1.248h-2.859v8.942zm7.954 0V12.32h1.324v10.19h-1.324zm7.179 0h-1.324v-8.942h-2.859V12.32h7.042v1.248h-2.859v8.942zm16.216-1.315c-1.01 1.04-2.266 1.56-3.765 1.56-1.5 0-2.754-.52-3.765-1.56-1.011-1.04-1.499-2.287-1.499-3.777 0-1.49.488-2.773 1.499-3.778 1.011-1.04 2.265-1.56 3.765-1.56 1.499 0 2.755.52 3.765 1.56 1.012 1.04 1.535 2.287 1.535 3.777-.035 1.49-.523 2.738-1.535 3.778zm-6.554-.866c.767.762 1.673 1.143 2.789 1.143 1.08 0 2.022-.38 2.788-1.143.768-.763 1.151-1.733 1.151-2.946s-.383-2.184-1.151-2.946c-.766-.763-1.673-1.144-2.788-1.144-1.116 0-2.022.381-2.789 1.144-.767.762-1.151 1.733-1.151 2.946s.384 2.183 1.151 2.946zm9.897 2.181V12.32h1.605l4.985 7.937h.07l-.07-1.976v-5.96h1.325V22.51h-1.36l-5.229-8.318h-.07l.07 1.976v6.342h-1.326z" fill="#fff" stroke="#fff" stroke-width=".191" stroke-miterlimit="10"/><path d="M117.488 37.378c-4.009 0-7.287 3.05-7.287 7.244 0 4.159 3.278 7.243 7.287 7.243 4.01 0 7.321-3.084 7.321-7.243 0-4.194-3.276-7.244-7.321-7.244zm0 11.61c-2.196 0-4.114-1.801-4.114-4.366 0-2.6 1.883-4.367 4.114-4.367s4.113 1.767 4.113 4.367c0 2.565-1.917 4.367-4.113 4.367zm-15.898-11.61c-4.009 0-7.286 3.05-7.286 7.244 0 4.159 3.277 7.243 7.286 7.243 4.01 0 7.287-3.084 7.287-7.243 0-4.194-3.277-7.244-7.287-7.244zm0 11.61c-2.196 0-4.114-1.801-4.114-4.366 0-2.6 1.918-4.367 4.114-4.367 2.197 0 4.114 1.767 4.114 4.367-.035 2.565-1.917 4.367-4.114 4.367zm-18.966-9.392v3.085h7.392c-.21 1.733-.802 2.98-1.674 3.847-1.08 1.074-2.754 2.253-5.718 2.253-4.532 0-8.088-3.64-8.088-8.145 0-4.506 3.556-8.145 8.088-8.145 2.441 0 4.254.97 5.579 2.184l2.161-2.15c-1.848-1.767-4.288-3.084-7.74-3.084-6.24 0-11.47 5.026-11.47 11.23 0 6.204 5.23 11.23 11.47 11.23 3.382 0 5.892-1.11 7.88-3.155 2.022-2.01 2.684-4.887 2.684-7.174 0-.728-.07-1.387-.174-1.906 0-.07-10.39-.07-10.39-.07zm77.467 2.392c-.593-1.63-2.44-4.61-6.24-4.61-3.731 0-6.868 2.946-6.868 7.244 0 4.055 3.067 7.243 7.217 7.243 3.346 0 5.263-2.01 6.065-3.188l-2.475-1.63c-.837 1.214-1.952 2.011-3.59 2.011-1.605 0-2.79-.728-3.522-2.183l9.727-3.986c.035-.104-.314-.901-.314-.901zm-9.901 2.391c-.07-2.773 2.161-4.228 3.8-4.228 1.255 0 2.336.624 2.719 1.525-.035.035-6.519 2.703-6.519 2.703zm-7.914 7.036h3.207V30.169h-3.207v21.246zm-5.229-12.443h-.105c-.733-.831-2.092-1.594-3.836-1.594-3.625 0-6.971 3.189-6.971 7.244s3.346 7.209 6.971 7.209c1.744 0 3.103-.763 3.836-1.63h.105v1.04c0 2.773-1.499 4.264-3.871 4.264-1.952 0-3.172-1.387-3.66-2.565l-2.789 1.144c.802 1.906 2.928 4.263 6.449 4.263 3.766 0 6.904-2.184 6.904-7.521V37.829h-3.033v1.143zm-3.662 10.017c-2.196 0-4.044-1.837-4.044-4.367 0-2.565 1.848-4.402 4.044-4.402 2.163 0 3.871 1.872 3.871 4.402 0 2.53-1.708 4.367-3.871 4.367zm41.698-18.854h-7.636V51.38h3.172v-8.04h4.464c3.555 0 7.007-2.565 7.007-6.586 0-4.055-3.487-6.62-7.007-6.62zm.07 10.258h-4.534v-7.278h4.534c2.37 0 3.729 1.976 3.729 3.64 0 1.628-1.359 3.638-3.729 3.638zm19.732-3.05c-2.301 0-4.707 1.006-5.683 3.258l2.824 1.179c.593-1.179 1.744-1.56 2.928-1.56 1.64 0 3.348 1.005 3.348 2.738v.208c-.593-.346-1.813-.832-3.348-.832-3.033 0-6.17 1.664-6.17 4.783 0 2.842 2.51 4.68 5.298 4.68 2.163 0 3.348-.971 4.08-2.08h.105v1.629h3.067V43.2c.035-3.743-2.788-5.858-6.449-5.858zm-.384 11.646c-1.045 0-2.51-.52-2.51-1.802 0-1.63 1.813-2.288 3.382-2.288 1.394 0 2.057.312 2.929.728-.279 1.975-1.952 3.362-3.801 3.362zm18.095-11.195l-3.661 9.22h-.105l-3.8-9.22h-3.452l5.683 12.858-3.242 7.175h3.347l8.785-20.033h-3.555zm-28.763 13.62h3.208V30.17h-3.208v21.246z" fill="#fff"/><path d="M18.823 13.224c-.488.52-.802 1.351-.802 2.391v37.604c0 1.04.28 1.872.802 2.392l.14.104L40.16 34.642v-.485L18.963 13.085l-.14.139z" fill="url(#paint0_linear_113_2596)"/><path d="M47.207 41.678l-7.042-7.036v-.485l7.077-7.036.175.104 8.367 4.748c2.37 1.352 2.37 3.57 0 4.922l-8.367 4.713c-.035-.034-.21.07-.21.07z" fill="url(#paint1_linear_113_2596)"/><path d="M47.37 41.575L40.155 34.4 18.852 55.577c.802.832 2.092.936 3.557.104L47.37 41.575z" fill="url(#paint2_linear_113_2596)"/><path d="M47.366 27.225L22.37 13.12c-1.464-.832-2.754-.728-3.556.104L40.115 34.4l7.251-7.175z" fill="url(#paint3_linear_113_2596)"/></g><defs><linearGradient id="paint0_linear_113_2596" x1="38.259" y1="53.596" x2="2.935" y2="17.643" gradientUnits="userSpaceOnUse"><stop stop-color="#00A0FF"/><stop offset=".007" stop-color="#00A1FF"/><stop offset=".26" stop-color="#00BEFF"/><stop offset=".512" stop-color="#00D2FF"/><stop offset=".76" stop-color="#00DFFF"/><stop offset="1" stop-color="#00E3FF"/></linearGradient><linearGradient id="paint1_linear_113_2596" x1="58.845" y1="34.402" x2="7.001" y2="34.402" gradientUnits="userSpaceOnUse"><stop stop-color="#FFE000"/><stop offset=".409" stop-color="#FFBD00"/><stop offset=".775" stop-color="orange"/><stop offset="1" stop-color="#FF9C00"/></linearGradient><linearGradient id="paint2_linear_113_2596" x1="29.163" y1="44.684" x2="-18.74" y2="-4.07" gradientUnits="userSpaceOnUse"><stop stop-color="#FF3A44"/><stop offset="1" stop-color="#C31162"/></linearGradient><linearGradient id="paint3_linear_113_2596" x1="-.814" y1="53.919" x2="20.577" y2="32.148" gradientUnits="userSpaceOnUse"><stop stop-color="#32A071"/><stop offset=".069" stop-color="#2DA771"/><stop offset=".476" stop-color="#15CF74"/><stop offset=".801" stop-color="#06E775"/><stop offset="1" stop-color="#00F076"/></linearGradient><clipPath id="clip0_113_2596"><path fill="#fff" transform="translate(0 .4)" d="M0 0h233v68H0z"/></clipPath></defs></svg>