<svg width="108" height="117" fill="none" xmlns="http://www.w3.org/2000/svg"><path fill-rule="evenodd" clip-rule="evenodd" d="M77.49.083c12.782-1.08 34.429 8.24 18.456 37.445-1.113 2.035 6.945 5.966 2.912 15.105-.955 2.162 4.307 2.753 5.141 7.241.688 7.259-2.144 7.772.304 14.748 8.88 25.31-.729 40.748-27.894 36.381-2.648-.426-47.765 13.041-64.73-2.398C9.63 106.742-.392 95.671.011 91.04c.223-2.571 11.792-5.133 21.283-15.828 9.56-10.774 11.948-22.649 22.402-32.215 6.09-5.571 13.242-8.53 13-9.737C52.974 14.66 67.56.922 77.492.083z" fill="#FEFEFE"/><path fill-rule="evenodd" clip-rule="evenodd" d="M57.331 38.265c-11.481 6.8-18.096 18.56-22.786 26.199-8.533 13.9-11.951 17.577-29.393 27.695 2.508 5.25 9.447 14.155 15.664 13.512-.105-.894 5.693-7.707 9.054-13.88 5.623-10.329 10.53-18.313 14.639-29.308 1.286-3.442-.446-11.104 3.202-16.325.835-1.194 6.173-5.965 9.62-7.893z" fill="#DF717D"/><path fill-rule="evenodd" clip-rule="evenodd" d="M45.516 63.604c-.069-4.351.74-14.544.74-14.544-2.637 4.93-5.93 15.56-8.642 23.092-5.61 15.575-15.024 26.74-23.397 34.42 5.117 6.516 21.545 7.079 29.252 4.828-1.555-13.254-.711-25.324 1.926-37.163 0 0 .07-3.136.12-10.633z" fill="#DF717D"/><path fill-rule="evenodd" clip-rule="evenodd" d="M45.192 68.404c-.95-3.12-.06-7.275-.06-7.275C38.5 76.332 31.97 94.5 14.218 106.573c.88 1.821 4.362 3.698 9.127 4.903 6.303 1.593 14.533 1.847 20.013-.272-1.895-9.357-1.2-22.043 1.681-35.31.436-2.01-.109-5.45.154-7.49z" fill="#BA4350"/><path fill-rule="evenodd" clip-rule="evenodd" d="M40.552 62.444C27.235 86.946 12.254 96.96 8.854 97.82c-.09.27 1.907 2.539 3.684 4.2 1.801 1.685 3.303 2.412 3.303 2.412 3.663-3.441 6.65-6.844 8.984-9.93a130.044 130.044 0 002.773-3.79 69.135 69.135 0 002.941-4.576 95.893 95.893 0 002.725-4.933c1.098-2.142 2.221-4.692 3.225-7.184 1.658-4.118 3.225-9.152 4.063-11.574z" fill="#BA4350"/><path clip-rule="evenodd" d="M44.843 70.814c-5.397 15.206-6.371 24.644-12.38 40.68 14.98 3.216 30.988-.32 40.032-6.023-6.052-7.099-8.713-16.342-9.541-21.38-.02-.123-13.36 3-15.9 1.35-1.266-.822-2.208-14.563-2.211-14.627v0z" stroke="#373435" stroke-width=".176" stroke-miterlimit="22.926" stroke-linecap="round" stroke-linejoin="round"/><path fill-rule="evenodd" clip-rule="evenodd" d="M44.843 70.814c-5.397 15.206-6.371 24.644-12.38 40.68 14.98 3.216 30.988-.32 40.032-6.023-6.052-7.099-8.713-16.342-9.541-21.38-.02-.123-13.36 3-15.9 1.35-1.266-.822-2.208-14.563-2.211-14.627z" fill="#BA4350"/><path d="M90.284 18.052l1.98-1.059.53 1.456v2.78l-2.51 4.234-1.849 2.383-.792 2.779-.66 2.25-1.453.397c-1.585-1.853-6.074 6.485-9.376 5.029 2.425 1.995 4.445 2.988 8.716 4.632l2.509 2.25-5.15 8.735H72.06L57.799 46.77l-3.962-5.956 4.49-3.44 3.962-3.31 1.98-3.043 2.245-4.103s3.566-1.853 4.754-2.25c1.189-.397 12.677-3.44 12.677-3.44l6.34-3.177z" fill="url(#paint0_linear_1256_78)" stroke="#000"/><path d="M46.31 81.82V62.94l10.216.837-1.016 8.902-.358 3.107 11.292-1.434 10.695-3.405 7.11-3.466h3.346l.299 1.255 5.138 1.255 2.928 3.824-.299 3.585h-1.733l-5.078-.24-5.138.598-3.167-.597-2.808.836-4.601 2.27-4.54 2.211-6.991 1.912-8.126 1.016-6.334-.359-.836-3.226z" fill="url(#paint1_linear_1256_78)"/><path fill-rule="evenodd" clip-rule="evenodd" d="M45.322 76.408c-.248-2.645-.48-5.594-.48-5.594-.538 1.532-1.266 3.415-1.908 5.267-.919 2.652-2.792 10.04-5.02 18.353-1.748 6.52-5.357 16.594-5.33 16.733 7.593-13.902 8.653-18.034 12.738-34.759z" fill="#DF717D"/><path fill-rule="evenodd" clip-rule="evenodd" d="M54.76 41.766c5.176 3.186 8.57 7.04 12.92 8.842 4.018 1.666 9.278 2.73 17.619 1.744-11.911 3.673-19.39 3.055-30.54-10.586zm31.813-13.713c-.203-.182-1.497.357-2.835-2.251-.418-.816-.96-1.388-.97-1.374-.267.289.35 2.386.879 3.142 1.423 2.033 2.64.933 2.926.483z" fill="#373435"/><path fill-rule="evenodd" clip-rule="evenodd" d="M79.437 4.38c2.723 0 12.8 3.226 15.942 10.562.278.65 2.45 4.257 2.437 6.778-.017 3.18-7.006 11.645-7.572 15.855-.382 2.844 4.937 5.885 5.539 7.914 1.147 3.872-1.711 5.803-1.697 7.876.01 1.514 5.41 4.497 5.861 5.772.979 2.764-2.554 3.372-2.58 4.957-.02 1.258.626 2.815 3.257 3.13 1.442.172-4.337 5.15-6.096 2.425-1.862-2.887-4.121-4.697-3.291-6.1.742-1.256 1.934-3.855 1.788-5.066-.503-4.185-3.15-6.19-3.034-6.725.064-.302.181-4.34-1.47-6.19-2.74-3.063-7.687-4.099-7.769-4.14-3.679-1.868-5.406-3.017-4.661-2.976.698.038 1.806.537 3.528-.57.665-.426 1.805-1.798 2.674-2.373.432-.286.645-.237.893-.647.257-.424.552-1.306 1.064-1.544.382-.177.973.143 1.613.147.275.002.799-.17.925-.274.064-.052.413-2.913 1.894-5.286 1.34-2.15 2.11-3.107 2.662-3.852 3.075-4.153.929-6.891.678-6.755-7.027 3.81-21.487 6.844-25.826 10.306-.912.727-1.797 4.06-2.51 4.203l-.913-2.86c-.28-.872-.632-2.329-.613-3.913.039-3.21 1.062-7.184 2.278-9.104 5.281-8.337 12.277-11.55 15-11.55z" fill="url(#paint2_linear_1256_78)"/><path fill-rule="evenodd" clip-rule="evenodd" d="M98.666 19.847c.614 3.21-.402 7.207-2.682 10.165-1.939 2.514-5.122 4.687-4.889 8.35.219 3.43 7.066 4.555 5.67 11.14-.164.776-2.592 2.934-2.096 4.306.734 2.03 5.157 3.689 5.596 5.14.977 3.232-3.239 3.906-2.596 5.85.313.946.635 1.684 2.012 2.163 1.494.518 1.864.142 1.885.29.008.056-2.831.362-4.064-1.474-1.638-2.437 1.055-3.475 1.743-4.526.465-.708.243-1.54.047-2.052-.703-1.83-4.355-2.347-5.772-4.75-1.776-3.012 3.434-4.584 1.256-8.794-1.353-2.615-5.116-3.675-5.798-8.064-.416-2.673 5.254-8.393 6.866-12.183.556-1.306.596-2.707.534-3.98-.213-4.392-3.307-8.282-5.152-10.41-2.442-2.815-5.195-4.655-8.615-5.296-2.933-.55-5.169-.224-7.946 1.193-6.59 3.363-10.12 8.87-11.691 15.02-1.232 4.826-.302 5.862.496 9.2-.857-1.872-1.788-3.511-1.687-6.897.264-8.902 6.239-19.3 18.369-20.72 8.332-.975 17.03 8.572 18.514 16.33z" fill="#373435"/><path fill-rule="evenodd" clip-rule="evenodd" d="M81.868 33.833c.167.077 1.23.228 1.37.749.1.377-.294.897-.654.76-1.12-.426-2.734-2.041-2.479-2.453.13-.209.57.396 1.763.944z" fill="#B55970"/><path fill-rule="evenodd" clip-rule="evenodd" d="M81.01 34.47c.106.147.819.591.957 1.113.1.376-.424.744-.784.606-1.119-.425-1.356-2.733-1.101-3.145.129-.208.138.33.927 1.425z" fill="#B55970"/><path fill-rule="evenodd" clip-rule="evenodd" d="M92.2 16.036c2.141 2.644.945 5.464.262 7.047-.868 2.009-2.069 2.81-2.997 4.132-.452.644-.797 1.431-1.091 2.504-.545 1.989-.822 3.724-1.089 3.867-1.001.536-1.754.36-2.736-.047-.12-.05-.564.013-.735.325-.107.198-.266.59-.273.838-.02.76-.756 1.163-1.203 1.084-.225-.04.11.43-.434.73-.53.293-.661-.007-1.031.488-.436.585-1.153 1.575-1.752 1.967-.827.543-2.524.065-2.933-.13-4.567-2.165-6.491-9.628-6.297-9.772.08-.059 1.815 3.746 4.088 6.495 1.335 1.614 3.18 3.159 4.421 2.517 1.8-.93 1.993-2.418 2.266-2.32.549.198 1.067.217 1.217-.317.011-.042-.539-.273-.924-.704-.743-.832-1.15-2.107-.92-2.119.129-.006.328.545.905 1.214.434.503 1.246 1.11 1.586 1.154.287.037.392-.267.456-.547.265-1.158.964-1.48 1.18-1.472.622.024 1.6.245 2.25-.088.336-.171.792-2.497 1.434-4.433.573-1.729 2.28-2.328 3.21-4.538 2.672-6.321.579-5.759.554-5.726-1.739 2.227-3.919 3.354-7.03 4.027-.093.02 2.177.492 3.599 1.788 1.09.994.335 2.028.301 2.035-.059.013.265-.604-.886-1.271-2.255-1.308-3.71-2.402-3.778-2.389-.962.203-1.88.393-2.657.611C76.02 24.427 66.52 27.29 68.84 34.618c.447 1.413 1.454 2.619 1.604 4.665.207 2.822-4.987 4.755-2.876 6.453.23.185-1.769-.476-.517-2.438 3.08-4.829 3.072-2.152-.001-9.16-1.242-2.831.454-6.934 3.178-8.706 2.822-1.874 6.877-3.15 11.441-4.419 3.977-1.106 8.533-2.088 10.533-4.977z" fill="#373435"/><path fill-rule="evenodd" clip-rule="evenodd" d="M78.528 53.308c2.209-.203 6.15-1.03 7.495-9.76.163-1.062 2.068 1.445 2.654 2.63.362.733 1.118 1.961 1.232 3.14.08.827-.255 2.145.338 2.813 2.493 2.809 4.417 6.977 1.804 9.843-3.71 4.067 5.307 6.915 9.359 22.656.959 3.73 1.496 7.677.839 11.039-2.365 12.094-15.342 13.373-25.082 10.921-7.193-1.81-16.615-3.762-21.209-6.954 0 0 3.86-9.452 4.38-13.586.045-.355.132-.693.147-1.026.018-.4 4.153-1.242 9.046-3.05 2.9-1.072 5.65-2.718 8.01-3.859 1.225-.592 2.53-.942 3.892-.812 2.67.254 2.264.657 4.484.513.608-.04 3.03-.538 3.815-.588 1.252-.079 3.747.326 4.68.131 1.406-.293.47-1.197.47-1.197.588-.206.72-.557.824-.923.022-.079.022-.316-.157-.941-.256-.89-.628-1.194-.638-1.216-.545-1.096-2.017-2.364-3.331-3.044-2.887-1.493-6.385-.212-6.385-.212 2.593-.867 2.41-1.343 2.396-1.597-.028-.495-1.388-.331-1.501-.339-.362-.024-3.32.459-5.17 1.274-1.641.724-2.19 1.784-2.645 1.864-6.096 1.069-16.63 5.625-17.235 3.471-.702-2.494-4.155-7.555-4.633-10.602 0 0-3.693.938-6.07.442-2.06-.43-4.295-1.272-4.52-2.055-.593-2.051-.151-6.11-.027-8.347.334-5.992 2.562-10.22 8.002-13.07.022-.011.656.49 1.683 1.549 3.527 3.634 12.418 11.867 23.053 10.892z" fill="url(#paint3_linear_1256_78)"/><path fill-rule="evenodd" clip-rule="evenodd" d="M59.573 54.576c-1.143 1.719-2.082 5.474-2.893 10.371-.044.264 2.052 2.318 3.206 4.773.436.926 1.105 3.063 1.295 3.902.01.048 2.897-.072 6.568-.75 3.162-.583 6.967-1.71 9.309-2.005 1.448-.184 2.943.194 2.948.257.007.088-3.035.63-3.661.88-1.94.776-3.75 1.801-7.794 2.683-3.847.839-7.404.961-7.45.956-.032-.003-3-.035-5.514.571-2.315.558-4.192 1.769-4.236 1.551-.038-.192 1.844-1.768 4.294-2.704 2.23-.85 4.97-1.076 4.963-1.063 0 0-1.297-1.16-2.258-2.698-1.156-1.849-1.855-3.828-1.884-3.58-.33 2.858-.478 5.676-1.374 7.567 1.767-13.382 1.286-19.36 4.794-21.847l-.313 1.136z" fill="#373435"/><path fill-rule="evenodd" clip-rule="evenodd" d="M77.806 40.02c.62-.047 9.046 1.732 11.162 4.534 1.04 1.376 1.771 3.853 1.213 6.905-.129.702 3.01 1.224 3.663 5.747.319 2.21-1.306 5.228-2.403 6.883-.403.608.752 1.47 3.563 5.729 5.257 7.967 9.025 14.404 8.089 24.141-1.456 15.125-16.456 16.125-29.646 12.74-3.526-.905-17.208-4.793-17.802-6.39-.4-1.075 2.766-6.882 3.503-9.584.698-2.282 1.135-4.697 1.175-4.791.028-.065.275 1.044.092 2.59-.37 3.141-4.567 10.78-3.78 11.172 4.127 2.058 9.689 3.86 13.371 4.962 16.074 4.813 27.465 2.867 30.937-5.787 2.492-6.21 1.26-15.892-6.89-28.94-1.483-2.377-3.357-5.087-3.357-5.087-1.627 1.364-4.115 3.12-3.18 2.116 5.875-6.315 4.876-9.623 3.956-11.594-1.178-2.52-3.965-4.272-6.024-6.133-.144-.13 4.267 2.098 4.215 1.914-.537-1.911-.543-3.419-1.346-4.637-1.377-2.09-4.12-2.862-6.398-3.945-2.43-1.155-4.39-2.525-4.113-2.545z" fill="#373435"/><path fill-rule="evenodd" clip-rule="evenodd" d="M64.545 62.592c2.087 1.285 2.558 1.927 5.704 2.883 4.126 1.254 6.704.338 10.188-1.108-4.24 5.528-13.96 3.468-15.892-1.775zm29.913 29.71c-.105.216-.62 1.889 1.182 1.943.439.013.48-.136.46-.34-.048-.399-.708-.19-.488-.531.737-1.146.525-1.59.094-1.73-.605-.196-.976.175-1.248.658zM79.037 70.544c1.338-.769 1.34-.79 3.802-1.154 1.574-.233 1.893-.551 2.73-1.093.316-.204 1.15-.516 1.122-.568-.093-.157-.992.002-2.669.275-.877.142-2.307.271-3.233.72-.86.416-1.758.881-1.752 1.82zm5.683-.579c2.642.09 3.032-.046 6.201.682 1.293.297 2.8 1.119 2.801 1.06.089-.763-1.93-2.066-4.1-2.497-2.061-.41-4.328-.074-4.901.755zm2.813 1.713c.5.027 2.535.377 4.543.818 1.65.363 2.983 1.027 2.982.996.052-.722-1.79-1.651-3.457-1.982-1.582-.315-3.628-.468-4.068.168zm.942 1.823c.5.028 2.17.09 4.178.53 1.649.362 3.054 1.24 3.053 1.207-.083-.874-1.603-1.692-3.269-2.022-1.581-.314-3.523-.35-3.962.285zm1.045 1.995c-.011.128 1.496-.003 2.957.178 1.199.148 2.008.493 2.405.487.223-.44-1.245-1.154-2.454-1.278-1.149-.119-2.636.13-2.907.613z" fill="#373435"/><path fill-rule="evenodd" clip-rule="evenodd" d="M67.757 23.938c-1.397 4.814-3.486 8.937-6.513 12.12-4.864 4.683-9.78 6.67-12.038 9.785-3.449 4.757-2.502 9.03-2.53 15.372-.027 5.814-.401 22.866 1.25 23.104 3.694.57 6.952.399 10.785-.18 2.808-.423 6.044-.973 9.385-2.075 3.428-1.13 8.378-4.588 12.218-5.112 2.552-.348 3.092 1.14 7.097-.06 1.26-.376 2.825-.32 3.53-.27 1.096.075 1.666.346 2.584.483.82.122 1.697-.107 1.53-.032-.133.557-2.254.537-4.787.672-2.022.107-3.881.661-5.996.56-1.748-.085-3.07-.994-4.16-.74-2.96.69-4.664 2.263-8.06 3.782-5.406 2.416-8.268 3.36-13.64 4.49-2.762.582-10.734 1.986-11.94.034-2.663-4.31-2.873-9.752-2.045-21.141.447-6.16-.185-13.936 1.687-17.67 2.022-4.03 6.428-6.11 13.488-11.093 4.054-2.862 5.285-6.867 8.155-12.03z" fill="#373435"/><path fill-rule="evenodd" clip-rule="evenodd" d="M56.474 67.602s.083.179.172.358c1.087 2.192 2.367 4.675 4 6.053-2.291.215-3.768.593-5.494 1.296.956-2.808.96-5.236 1.322-7.707z" fill="#BA4350"/><path d="M100.645 102.268H8.791c-2.485 0-4.5 1.925-4.5 4.299v5.155c0 2.375 2.015 4.3 4.5 4.3h91.854c2.485 0 4.499-1.925 4.499-4.3v-5.155c0-2.374-2.014-4.299-4.499-4.299z" fill="#BD2452"/><path d="M9.935 112.786c-.94 0-1.682-.221-2.229-.661-.547-.44-.82-1.042-.82-1.806h2.476c0 .22.055.391.165.514.11.124.262.185.457.185.297 0 .446-.12.446-.359 0-.182-.152-.327-.456-.437l-1.467-.525c-1.023-.369-1.534-1.026-1.534-1.971 0-.68.255-1.22.767-1.622.511-.401 1.224-.602 2.137-.602.906 0 1.628.196 2.165.588.538.391.806.93.806 1.616h-2.476c0-.401-.168-.602-.505-.602a.463.463 0 00-.306.093.303.303 0 00-.112.248c0 .09.037.166.112.227.074.062.222.135.442.219l1.37.514c1.022.389 1.534 1.056 1.534 2.001 0 .738-.265 1.319-.797 1.743-.53.425-1.256.637-2.175.637zm8.92-.753c-.573.469-1.348.704-2.326.704-.977 0-1.753-.235-2.326-.704-.572-.469-.86-1.102-.86-1.899v-4.389h2.477v4.234c0 .194.065.358.195.491a.69.69 0 00.514.198.688.688 0 00.515-.198.676.676 0 00.194-.491v-4.234h2.477v4.389c0 .797-.287 1.43-.86 1.899zm5.405-6.288c.758 0 1.386.247 1.884.743.499.495.748 1.118.748 1.869 0 .745-.25 1.364-.752 1.86-.502.495-1.129.743-1.88.743h-1.194v1.583h-2.477v-6.798h3.671zm-.602 3.37a.664.664 0 00.51-.214.767.767 0 00.2-.544.768.768 0 00-.2-.544.656.656 0 00-.5-.213h-.602v1.515h.592zm3.817 3.428v-6.798h4.603v1.777h-2.126v.806h2.126v1.68h-2.126v.757h2.126v1.778h-4.603zm11.926-4.186c0 .868-.323 1.551-.97 2.049l.97 2.137h-2.835l-.69-1.583h-.301v1.583h-2.477v-6.798h3.671c.758 0 1.386.247 1.885.743.498.495.747 1.118.747 1.869zm-3.826-.757v1.515h.592a.664.664 0 00.51-.214.765.765 0 00.2-.544.767.767 0 00-.2-.544.656.656 0 00-.5-.213h-.602zm4.652 4.943v-6.798h3.321l1.078 4.059 1.079-4.059h3.224v6.798h-2.38v-4.225l-1 4.225h-1.816l-1.126-4.225v4.225h-2.38zm16.01-.821c-.702.709-1.64 1.064-2.811 1.064-1.172 0-2.11-.355-2.812-1.064-.703-.709-1.053-1.568-1.053-2.578 0-1.01.35-1.87 1.053-2.579.703-.708 1.64-1.063 2.812-1.063s2.11.355 2.811 1.063c.703.709 1.054 1.569 1.054 2.579 0 1.01-.35 1.869-1.054 2.578zm-3.773-1.563c.22.275.54.412.962.412.42 0 .741-.137.961-.412.22-.276.33-.614.33-1.015 0-.402-.11-.74-.33-1.015-.22-.275-.54-.413-.961-.413-.421 0-.742.138-.962.413-.22.275-.33.613-.33 1.015 0 .401.11.739.33 1.015zm5.459 2.384v-6.798h3.321l1.078 4.059 1.078-4.059h3.224v6.798h-2.379v-4.225l-1 4.225h-1.817l-1.126-4.225v4.225h-2.38zm12.382.243c-.938 0-1.681-.221-2.228-.661-.547-.44-.82-1.042-.82-1.806h2.475c0 .22.055.391.165.514a.58.58 0 00.457.185c.298 0 .447-.12.447-.359 0-.182-.152-.327-.457-.437l-1.466-.525c-1.023-.369-1.535-1.026-1.535-1.971 0-.68.256-1.22.768-1.622.511-.401 1.223-.602 2.136-.602.906 0 1.629.196 2.166.588.537.391.806.93.806 1.616h-2.477c0-.401-.168-.602-.505-.602a.465.465 0 00-.306.093.304.304 0 00-.111.248c0 .09.037.166.111.227.075.062.222.135.443.219l1.369.514c1.023.389 1.534 1.056 1.534 2.001 0 .738-.265 1.319-.796 1.743-.53.425-1.256.637-2.176.637zm9.285 0c-1.126 0-2.056-.344-2.787-1.03-.732-.686-1.098-1.557-1.098-2.612 0-1.055.366-1.927 1.098-2.613.731-.686 1.66-1.029 2.787-1.029 1.133 0 2.038.257 2.715.772.676.515 1.05 1.254 1.121 2.219h-2.583a.889.889 0 00-.408-.573c-.22-.142-.498-.214-.835-.214-.415 0-.738.128-.971.384-.234.256-.35.607-.35 1.054 0 .446.116.798.35 1.054.233.255.556.383.971.383.337 0 .615-.071.835-.214a.887.887 0 00.408-.573h2.583c-.07.965-.445 1.705-1.121 2.22-.677.514-1.582.772-2.715.772zm4.429-.243v-6.798h2.477v4.71h2.107v2.088H84.02zm10.678-.51c-.573.469-1.348.704-2.325.704-.978 0-1.754-.235-2.327-.704s-.86-1.102-.86-1.899v-4.389h2.477v4.234c0 .194.065.358.195.491.13.132.3.198.515.198a.69.69 0 00.514-.198.678.678 0 00.194-.491v-4.234h2.477v4.389c0 .797-.287 1.43-.86 1.899zm6.425-2.928c.44.052.787.218 1.039.5.253.282.379.639.379 1.073 0 .57-.199 1.023-.597 1.36-.399.337-.934.505-1.608.505h-3.904v-6.798h3.846c.66 0 1.187.158 1.578.476.392.317.588.744.588 1.282 0 .414-.122.769-.364 1.063a1.514 1.514 0 01-.957.539zm-1.807-1.904h-.407v1.224h.407c.201 0 .36-.057.477-.17a.6.6 0 00.174-.451.572.572 0 00-.174-.443c-.117-.106-.276-.16-.477-.16zm0 3.72c.214 0 .384-.055.51-.165a.563.563 0 00.19-.447.552.552 0 00-.19-.437c-.126-.11-.296-.165-.51-.165h-.407v1.214h.407z" fill="#FEFEFE"/><defs><linearGradient id="paint0_linear_1256_78" x1="73.315" y1="16.993" x2="73.315" y2="53.918" gradientUnits="userSpaceOnUse"><stop stop-color="#F6B0A1"/><stop offset="1" stop-color="#FDD8D0"/></linearGradient><linearGradient id="paint1_linear_1256_78" x1="71.135" y1="62.94" x2="71.135" y2="85.406" gradientUnits="userSpaceOnUse"><stop stop-color="#F7B3A6"/><stop offset="1" stop-color="#FEDDD6"/></linearGradient><linearGradient id="paint2_linear_1256_78" x1="81.506" y1="4.38" x2="81.506" y2="70.463" gradientUnits="userSpaceOnUse"><stop stop-color="#633536"/><stop offset="1" stop-color="#D5AAB3"/></linearGradient><linearGradient id="paint3_linear_1256_78" x1="74.027" y1="40.867" x2="74.027" y2="107.622" gradientUnits="userSpaceOnUse"><stop stop-color="#fff"/><stop offset="1" stop-color="#F5D1C9"/></linearGradient></defs></svg>